<svg width="1220" height="65" viewBox="0 0 1220 65" fill="none" xmlns="http://www.w3.org/2000/svg">
<path d="M51.075 41.5H56.25L59.15 29.95L61.95 41.5H67.125L71.7 23.95H67.1L64.55 36.725L61.55 23.95H56.85L53.725 36.725L51.2 23.95H46.625L51.075 41.5ZM73.8439 41.5H78.1189V33.925C78.1189 32.025 79.1689 30.975 80.7939 30.975C82.4189 30.975 83.4689 32.025 83.4689 33.925V41.5H87.7189V33.35C87.7189 29.6 85.5939 27.4 82.4189 27.4C80.4939 27.4 78.9689 28.225 78.1189 29.425V23H73.8439V41.5ZM90.6896 41.5H94.9646V27.55H90.6896V41.5ZM92.8396 26.1C94.3396 26.1 95.3646 25.075 95.3646 23.8C95.3646 22.5 94.3396 21.475 92.8396 21.475C91.3146 21.475 90.2896 22.5 90.2896 23.8C90.2896 25.075 91.3146 26.1 92.8396 26.1ZM98.7377 36.65C98.7377 40.275 100.763 41.5 103.663 41.5H105.838V37.875H104.313C103.363 37.875 103.013 37.525 103.013 36.7V31.1H105.813V27.55H103.013V24.15H98.7377V27.55H97.0377V31.1H98.7377V36.65ZM114.369 30.775C115.794 30.775 116.994 31.65 116.994 33.175H111.644C111.894 31.625 112.969 30.775 114.369 30.775ZM121.044 36.875H116.494C116.144 37.625 115.469 38.225 114.269 38.225C112.894 38.225 111.769 37.375 111.619 35.55H121.294C121.344 35.125 121.369 34.7 121.369 34.3C121.369 30.05 118.494 27.35 114.419 27.35C110.269 27.35 107.369 30.1 107.369 34.525C107.369 38.95 110.319 41.7 114.419 41.7C117.894 41.7 120.369 39.6 121.044 36.875ZM122.899 32.7C122.899 37.95 126.549 41.625 131.724 41.625C135.899 41.625 139.049 39.3 140.049 35.5H135.349C134.624 37 133.299 37.75 131.674 37.75C129.049 37.75 127.249 35.8 127.249 32.7C127.249 29.6 129.049 27.65 131.674 27.65C133.299 27.65 134.624 28.4 135.349 29.9H140.049C139.049 26.1 135.899 23.75 131.724 23.75C126.549 23.75 122.899 27.45 122.899 32.7ZM156.317 34.525C156.317 30.1 153.167 27.35 149.067 27.35C144.992 27.35 141.817 30.1 141.817 34.525C141.817 38.95 144.917 41.7 149.017 41.7C153.117 41.7 156.317 38.95 156.317 34.525ZM146.167 34.525C146.167 32.15 147.517 31.05 149.067 31.05C150.567 31.05 151.967 32.15 151.967 34.525C151.967 36.875 150.542 38 149.017 38C147.467 38 146.167 36.875 146.167 34.525ZM172.481 34.5C172.481 38.9 175.206 41.7 178.606 41.7C180.681 41.7 182.156 40.75 182.931 39.525V41.5H187.206V27.55H182.931V29.525C182.181 28.3 180.706 27.35 178.631 27.35C175.206 27.35 172.481 30.1 172.481 34.5ZM182.931 34.525C182.931 36.75 181.506 37.975 179.881 37.975C178.281 37.975 176.831 36.725 176.831 34.5C176.831 32.275 178.281 31.075 179.881 31.075C181.506 31.075 182.931 32.3 182.931 34.525ZM194.574 35.025C194.574 32.625 195.749 31.925 197.774 31.925H198.949V27.4C197.074 27.4 195.549 28.4 194.574 29.875V27.55H190.299V41.5H194.574V35.025Z" fill="#37393F"/>
<path d="M158.585 41.5H162.86V23H158.585V41.5ZM165.958 41.5H170.233V23H165.958V41.5Z" fill="#6B77E5"/>
<path d="M14.3756 19.5H8.49649L25.2608 48.5L28.2003 43.4152L14.3756 19.5Z" fill="#40DDB6"/>
<path d="M5.8791 19.5H0L16.5506 48.1299L19.4084 42.9051L5.8791 19.5Z" fill="#40DDB6"/>
<path d="M32.5307 36.1948L36.3049 29.6629H30.4274L29.5911 31.11L25.433 23.9196H39.62L42.1706 19.5H17L29.5945 41.2863L32.5324 36.1981L32.5307 36.1948Z" fill="#6B77E5"/>
<path d="M665 33L669 37L673 33" stroke="#37393F" stroke-width="2" stroke-linecap="round" stroke-linejoin="round"/>
<path d="M396.868 39.5V26.4091H398.454V32.2386H405.434V26.4091H407.019V39.5H405.434V33.6449H398.454V39.5H396.868ZM413.977 39.7045C413.09 39.7045 412.313 39.4936 411.644 39.0717C410.979 38.6499 410.459 38.0597 410.084 37.3011C409.713 36.5426 409.528 35.6562 409.528 34.642C409.528 33.6193 409.713 32.7266 410.084 31.9638C410.459 31.201 410.979 30.6087 411.644 30.1868C412.313 29.7649 413.09 29.554 413.977 29.554C414.863 29.554 415.639 29.7649 416.303 30.1868C416.972 30.6087 417.492 31.201 417.863 31.9638C418.238 32.7266 418.426 33.6193 418.426 34.642C418.426 35.6562 418.238 36.5426 417.863 37.3011C417.492 38.0597 416.972 38.6499 416.303 39.0717C415.639 39.4936 414.863 39.7045 413.977 39.7045ZM413.977 38.3494C414.65 38.3494 415.204 38.1768 415.639 37.8317C416.073 37.4865 416.395 37.0327 416.604 36.4702C416.813 35.9077 416.917 35.2983 416.917 34.642C416.917 33.9858 416.813 33.3743 416.604 32.8075C416.395 32.2408 416.073 31.7827 415.639 31.4332C415.204 31.0838 414.65 30.9091 413.977 30.9091C413.303 30.9091 412.749 31.0838 412.315 31.4332C411.88 31.7827 411.558 32.2408 411.35 32.8075C411.141 33.3743 411.036 33.9858 411.036 34.642C411.036 35.2983 411.141 35.9077 411.35 36.4702C411.558 37.0327 411.88 37.4865 412.315 37.8317C412.749 38.1768 413.303 38.3494 413.977 38.3494ZM420.728 39.5V29.6818H422.186V31.2159H422.314C422.518 30.6918 422.848 30.2848 423.304 29.995C423.76 29.701 424.308 29.554 424.947 29.554C425.595 29.554 426.134 29.701 426.564 29.995C426.999 30.2848 427.338 30.6918 427.581 31.2159H427.683C427.934 30.7088 428.311 30.3061 428.814 30.0078C429.317 29.7053 429.92 29.554 430.623 29.554C431.501 29.554 432.219 29.8288 432.777 30.3786C433.336 30.924 433.615 31.7741 433.615 32.929V39.5H432.106V32.929C432.106 32.2045 431.908 31.6868 431.512 31.3757C431.115 31.0646 430.649 30.9091 430.112 30.9091C429.422 30.9091 428.887 31.1179 428.507 31.5355C428.128 31.9489 427.939 32.473 427.939 33.108V39.5H426.404V32.7756C426.404 32.2173 426.223 31.7678 425.861 31.4268C425.499 31.0817 425.032 30.9091 424.461 30.9091C424.069 30.9091 423.703 31.0135 423.362 31.2223C423.025 31.4311 422.752 31.7209 422.544 32.0916C422.339 32.4581 422.237 32.8821 422.237 33.3636V39.5H420.728ZM440.489 39.7045C439.543 39.7045 438.727 39.4957 438.041 39.0781C437.359 38.6562 436.833 38.0682 436.462 37.3139C436.096 36.5554 435.913 35.6733 435.913 34.6676C435.913 33.6619 436.096 32.7756 436.462 32.0085C436.833 31.2372 437.349 30.6364 438.009 30.206C438.674 29.7713 439.45 29.554 440.336 29.554C440.847 29.554 441.352 29.6392 441.851 29.8097C442.349 29.9801 442.803 30.2571 443.212 30.6406C443.621 31.0199 443.947 31.5227 444.19 32.1491C444.433 32.7756 444.555 33.5469 444.555 34.4631V35.1023H436.987V33.7983H443.021C443.021 33.2443 442.91 32.75 442.688 32.3153C442.471 31.8807 442.16 31.5376 441.755 31.2862C441.354 31.0348 440.881 30.9091 440.336 30.9091C439.735 30.9091 439.215 31.0582 438.776 31.3565C438.342 31.6506 438.007 32.0341 437.773 32.5071C437.538 32.9801 437.421 33.4872 437.421 34.0284V34.8977C437.421 35.6392 437.549 36.2678 437.805 36.7834C438.065 37.2947 438.425 37.6847 438.885 37.9531C439.345 38.2173 439.88 38.3494 440.489 38.3494C440.886 38.3494 441.244 38.294 441.563 38.1832C441.887 38.0682 442.166 37.8977 442.401 37.6719C442.635 37.4418 442.816 37.1562 442.944 36.8153L444.401 37.2244C444.248 37.7188 443.99 38.1534 443.628 38.5284C443.266 38.8991 442.818 39.1889 442.286 39.3977C441.753 39.6023 441.154 39.7045 440.489 39.7045ZM488.091 39.5H486.429L491.236 26.4091H492.872L497.679 39.5H496.017L492.105 28.4801H492.003L488.091 39.5ZM488.705 34.3864H495.403V35.7926H488.705V34.3864ZM499.718 39.5V26.4091H501.227V31.2415H501.354C501.465 31.071 501.619 30.8537 501.815 30.5895C502.015 30.321 502.3 30.0824 502.671 29.8736C503.046 29.6605 503.553 29.554 504.192 29.554C505.019 29.554 505.748 29.7607 506.379 30.174C507.009 30.5874 507.501 31.1733 507.855 31.9318C508.209 32.6903 508.386 33.5852 508.386 34.6165C508.386 35.6562 508.209 36.5575 507.855 37.3203C507.501 38.0788 507.011 38.6669 506.385 39.0845C505.759 39.4979 505.036 39.7045 504.218 39.7045C503.587 39.7045 503.082 39.6001 502.703 39.3913C502.324 39.1783 502.032 38.9375 501.827 38.669C501.623 38.3963 501.465 38.1705 501.354 37.9915H501.175V39.5H499.718ZM501.201 34.5909C501.201 35.3324 501.31 35.9865 501.527 36.5533C501.744 37.1158 502.062 37.5568 502.479 37.8764C502.897 38.1918 503.408 38.3494 504.013 38.3494C504.644 38.3494 505.17 38.1832 505.592 37.8509C506.018 37.5142 506.338 37.0625 506.551 36.4957C506.768 35.9247 506.877 35.2898 506.877 34.5909C506.877 33.9006 506.771 33.2784 506.558 32.7244C506.349 32.1662 506.031 31.7251 505.605 31.4013C505.183 31.0732 504.653 30.9091 504.013 30.9091C503.4 30.9091 502.884 31.0646 502.467 31.3757C502.049 31.6825 501.734 32.1129 501.521 32.6669C501.308 33.2166 501.201 33.858 501.201 34.5909ZM514.682 39.7045C513.795 39.7045 513.018 39.4936 512.349 39.0717C511.684 38.6499 511.164 38.0597 510.789 37.3011C510.418 36.5426 510.233 35.6562 510.233 34.642C510.233 33.6193 510.418 32.7266 510.789 31.9638C511.164 31.201 511.684 30.6087 512.349 30.1868C513.018 29.7649 513.795 29.554 514.682 29.554C515.568 29.554 516.344 29.7649 517.009 30.1868C517.678 30.6087 518.197 31.201 518.568 31.9638C518.943 32.7266 519.131 33.6193 519.131 34.642C519.131 35.6562 518.943 36.5426 518.568 37.3011C518.197 38.0597 517.678 38.6499 517.009 39.0717C516.344 39.4936 515.568 39.7045 514.682 39.7045ZM514.682 38.3494C515.355 38.3494 515.909 38.1768 516.344 37.8317C516.778 37.4865 517.1 37.0327 517.309 36.4702C517.518 35.9077 517.622 35.2983 517.622 34.642C517.622 33.9858 517.518 33.3743 517.309 32.8075C517.1 32.2408 516.778 31.7827 516.344 31.4332C515.909 31.0838 515.355 30.9091 514.682 30.9091C514.009 30.9091 513.455 31.0838 513.02 31.4332C512.585 31.7827 512.263 32.2408 512.055 32.8075C511.846 33.3743 511.741 33.9858 511.741 34.642C511.741 35.2983 511.846 35.9077 512.055 36.4702C512.263 37.0327 512.585 37.4865 513.02 37.8317C513.455 38.1768 514.009 38.3494 514.682 38.3494ZM527.621 35.4858V29.6818H529.129V39.5H527.621V37.8381H527.519C527.289 38.3366 526.931 38.7607 526.445 39.1101C525.959 39.4553 525.345 39.6278 524.604 39.6278C523.99 39.6278 523.445 39.4936 522.968 39.2251C522.49 38.9524 522.115 38.5433 521.843 37.9979C521.57 37.4482 521.433 36.7557 521.433 35.9205V29.6818H522.942V35.8182C522.942 36.5341 523.142 37.1051 523.543 37.5312C523.948 37.9574 524.463 38.1705 525.09 38.1705C525.465 38.1705 525.846 38.0746 526.234 37.8828C526.626 37.6911 526.954 37.397 527.218 37.0007C527.487 36.6044 527.621 36.0994 527.621 35.4858ZM536.162 29.6818V30.9602H531.074V29.6818H536.162ZM532.557 27.3295H534.066V36.6875C534.066 37.1136 534.127 37.4332 534.251 37.6463C534.379 37.8551 534.541 37.9957 534.737 38.0682C534.937 38.1364 535.148 38.1705 535.37 38.1705C535.536 38.1705 535.672 38.1619 535.779 38.1449C535.885 38.1236 535.971 38.1065 536.034 38.0938L536.341 39.4489C536.239 39.4872 536.096 39.5256 535.913 39.5639C535.73 39.6065 535.498 39.6278 535.216 39.6278C534.79 39.6278 534.373 39.5362 533.963 39.353C533.559 39.1697 533.222 38.8906 532.953 38.5156C532.689 38.1406 532.557 37.6676 532.557 37.0966V27.3295ZM552.289 26.4091H553.875V35.0767C553.875 35.9716 553.664 36.7706 553.242 37.4737C552.824 38.1726 552.234 38.7244 551.471 39.1293C550.708 39.5298 549.814 39.7301 548.787 39.7301C547.76 39.7301 546.865 39.5298 546.102 39.1293C545.339 38.7244 544.747 38.1726 544.325 37.4737C543.907 36.7706 543.699 35.9716 543.699 35.0767V26.4091H545.284V34.9489C545.284 35.5881 545.424 36.157 545.706 36.6555C545.987 37.1499 546.387 37.5398 546.907 37.8253C547.431 38.1065 548.058 38.2472 548.787 38.2472C549.515 38.2472 550.142 38.1065 550.666 37.8253C551.19 37.5398 551.591 37.1499 551.868 36.6555C552.149 36.157 552.289 35.5881 552.289 34.9489V26.4091ZM563.79 31.8807L562.435 32.2642C562.35 32.0384 562.224 31.8189 562.058 31.6058C561.896 31.3885 561.675 31.2095 561.393 31.0689C561.112 30.9283 560.752 30.858 560.313 30.858C559.712 30.858 559.211 30.9964 558.811 31.2734C558.415 31.5462 558.216 31.8935 558.216 32.3153C558.216 32.6903 558.353 32.9865 558.626 33.2038C558.898 33.4212 559.324 33.6023 559.904 33.7472L561.361 34.1051C562.239 34.3182 562.893 34.6442 563.324 35.0831C563.754 35.5178 563.969 36.0781 563.969 36.7642C563.969 37.3267 563.807 37.8295 563.483 38.2727C563.164 38.7159 562.716 39.0653 562.141 39.321C561.566 39.5767 560.897 39.7045 560.134 39.7045C559.133 39.7045 558.304 39.4872 557.648 39.0526C556.991 38.6179 556.576 37.983 556.401 37.1477L557.833 36.7898C557.969 37.3182 558.227 37.7145 558.606 37.9787C558.99 38.2429 559.491 38.375 560.108 38.375C560.812 38.375 561.37 38.2259 561.783 37.9276C562.201 37.625 562.41 37.2628 562.41 36.8409C562.41 36.5 562.29 36.2145 562.052 35.9844C561.813 35.75 561.447 35.5753 560.952 35.4602L559.316 35.0767C558.417 34.8636 557.756 34.5334 557.334 34.0859C556.917 33.6342 556.708 33.0696 556.708 32.392C556.708 31.8381 556.863 31.348 557.175 30.9219C557.49 30.4957 557.918 30.1612 558.459 29.9183C559.005 29.6754 559.623 29.554 560.313 29.554C561.285 29.554 562.047 29.767 562.601 30.1932C563.16 30.6193 563.556 31.1818 563.79 31.8807ZM606.945 39.5V26.4091H611.368C612.395 26.4091 613.234 26.5945 613.886 26.9652C614.543 27.3317 615.028 27.8281 615.344 28.4545C615.659 29.081 615.817 29.7798 615.817 30.5511C615.817 31.3224 615.659 32.0234 615.344 32.6541C615.033 33.2848 614.551 33.7876 613.899 34.1626C613.247 34.5334 612.412 34.7188 611.393 34.7188H608.223V33.3125H611.342C612.045 33.3125 612.61 33.1911 613.036 32.9482C613.462 32.7053 613.771 32.3771 613.963 31.9638C614.159 31.5462 614.257 31.0753 614.257 30.5511C614.257 30.027 614.159 29.5582 613.963 29.1449C613.771 28.7315 613.46 28.4077 613.03 28.1733C612.599 27.9347 612.028 27.8153 611.317 27.8153H608.53V39.5H606.945ZM621.055 39.7301C620.433 39.7301 619.868 39.6129 619.361 39.3786C618.854 39.1399 618.451 38.7969 618.153 38.3494C617.855 37.8977 617.706 37.3523 617.706 36.7131C617.706 36.1506 617.816 35.6946 618.038 35.3452C618.26 34.9915 618.556 34.7145 618.926 34.5142C619.297 34.3139 619.706 34.1648 620.154 34.0668C620.605 33.9645 621.059 33.8835 621.515 33.8239C622.112 33.7472 622.596 33.6896 622.966 33.6513C623.341 33.6087 623.614 33.5384 623.784 33.4403C623.959 33.3423 624.047 33.1719 624.047 32.929V32.8778C624.047 32.2472 623.874 31.7571 623.529 31.4077C623.188 31.0582 622.67 30.8835 621.975 30.8835C621.255 30.8835 620.691 31.0412 620.282 31.3565C619.873 31.6719 619.585 32.0085 619.419 32.3665L617.987 31.8551C618.243 31.2585 618.583 30.794 619.01 30.4616C619.44 30.125 619.909 29.8906 620.416 29.7585C620.927 29.6222 621.43 29.554 621.924 29.554C622.24 29.554 622.602 29.5923 623.011 29.669C623.424 29.7415 623.823 29.8928 624.206 30.1229C624.594 30.353 624.916 30.7003 625.172 31.1648C625.427 31.6293 625.555 32.2514 625.555 33.0312V39.5H624.047V38.1705H623.97C623.868 38.3835 623.697 38.6115 623.458 38.8544C623.22 39.0973 622.902 39.304 622.506 39.4744C622.11 39.6449 621.626 39.7301 621.055 39.7301ZM621.285 38.375C621.882 38.375 622.385 38.2578 622.794 38.0234C623.207 37.7891 623.518 37.4865 623.727 37.1158C623.94 36.745 624.047 36.3551 624.047 35.946V34.5653C623.983 34.642 623.842 34.7124 623.625 34.7763C623.412 34.8359 623.164 34.8892 622.883 34.9361C622.606 34.9787 622.336 35.017 622.071 35.0511C621.811 35.081 621.6 35.1065 621.439 35.1278C621.047 35.179 620.68 35.2621 620.339 35.3771C620.002 35.4879 619.73 35.6562 619.521 35.8821C619.316 36.1037 619.214 36.4062 619.214 36.7898C619.214 37.3139 619.408 37.7102 619.796 37.9787C620.188 38.2429 620.684 38.375 621.285 38.375ZM632.271 43.3864C631.543 43.3864 630.916 43.2926 630.392 43.1051C629.868 42.9219 629.431 42.679 629.082 42.3764C628.737 42.0781 628.462 41.7585 628.257 41.4176L629.459 40.5739C629.595 40.7528 629.768 40.9574 629.977 41.1875C630.186 41.4219 630.471 41.6243 630.833 41.7947C631.2 41.9695 631.679 42.0568 632.271 42.0568C633.064 42.0568 633.718 41.8651 634.234 41.4815C634.749 41.098 635.007 40.4972 635.007 39.679V37.6847H634.879C634.769 37.8636 634.611 38.0852 634.406 38.3494C634.206 38.6094 633.916 38.8416 633.537 39.0462C633.162 39.2464 632.655 39.3466 632.016 39.3466C631.223 39.3466 630.512 39.1591 629.881 38.7841C629.254 38.4091 628.758 37.8636 628.392 37.1477C628.029 36.4318 627.848 35.5625 627.848 34.5398C627.848 33.5341 628.025 32.6584 628.379 31.9126C628.732 31.1626 629.225 30.5831 629.855 30.174C630.486 29.7607 631.215 29.554 632.041 29.554C632.681 29.554 633.188 29.6605 633.563 29.8736C633.942 30.0824 634.232 30.321 634.432 30.5895C634.637 30.8537 634.794 31.071 634.905 31.2415H635.058V29.6818H636.516V39.7812C636.516 40.625 636.324 41.3111 635.941 41.8395C635.561 42.3722 635.05 42.7621 634.406 43.0092C633.767 43.2607 633.056 43.3864 632.271 43.3864ZM632.22 37.9915C632.825 37.9915 633.337 37.853 633.754 37.576C634.172 37.299 634.49 36.9006 634.707 36.3807C634.924 35.8608 635.033 35.2386 635.033 34.5142C635.033 33.8068 634.926 33.1825 634.713 32.6413C634.5 32.1001 634.185 31.6761 633.767 31.3693C633.35 31.0625 632.834 30.9091 632.22 30.9091C631.581 30.9091 631.048 31.071 630.622 31.3949C630.2 31.7187 629.883 32.1534 629.67 32.6989C629.461 33.2443 629.357 33.8494 629.357 34.5142C629.357 35.196 629.463 35.799 629.676 36.3232C629.894 36.843 630.213 37.2521 630.635 37.5504C631.061 37.8445 631.59 37.9915 632.22 37.9915ZM643.394 39.7045C642.448 39.7045 641.632 39.4957 640.945 39.0781C640.264 38.6562 639.737 38.0682 639.367 37.3139C639 36.5554 638.817 35.6733 638.817 34.6676C638.817 33.6619 639 32.7756 639.367 32.0085C639.737 31.2372 640.253 30.6364 640.914 30.206C641.578 29.7713 642.354 29.554 643.24 29.554C643.752 29.554 644.257 29.6392 644.755 29.8097C645.254 29.9801 645.708 30.2571 646.117 30.6406C646.526 31.0199 646.852 31.5227 647.095 32.1491C647.338 32.7756 647.459 33.5469 647.459 34.4631V35.1023H639.891V33.7983H645.925C645.925 33.2443 645.814 32.75 645.593 32.3153C645.375 31.8807 645.064 31.5376 644.659 31.2862C644.259 31.0348 643.786 30.9091 643.24 30.9091C642.639 30.9091 642.119 31.0582 641.681 31.3565C641.246 31.6506 640.911 32.0341 640.677 32.5071C640.443 32.9801 640.325 33.4872 640.325 34.0284V34.8977C640.325 35.6392 640.453 36.2678 640.709 36.7834C640.969 37.2947 641.329 37.6847 641.789 37.9531C642.249 38.2173 642.784 38.3494 643.394 38.3494C643.79 38.3494 644.148 38.294 644.468 38.1832C644.791 38.0682 645.07 37.8977 645.305 37.6719C645.539 37.4418 645.72 37.1562 645.848 36.8153L647.306 37.2244C647.152 37.7188 646.894 38.1534 646.532 38.5284C646.17 38.8991 645.722 39.1889 645.19 39.3977C644.657 39.6023 644.058 39.7045 643.394 39.7045ZM656.708 31.8807L655.353 32.2642C655.268 32.0384 655.142 31.8189 654.976 31.6058C654.814 31.3885 654.593 31.2095 654.311 31.0689C654.03 30.9283 653.67 30.858 653.231 30.858C652.63 30.858 652.129 30.9964 651.729 31.2734C651.333 31.5462 651.134 31.8935 651.134 32.3153C651.134 32.6903 651.271 32.9865 651.544 33.2038C651.816 33.4212 652.242 33.6023 652.822 33.7472L654.279 34.1051C655.157 34.3182 655.811 34.6442 656.242 35.0831C656.672 35.5178 656.887 36.0781 656.887 36.7642C656.887 37.3267 656.725 37.8295 656.401 38.2727C656.082 38.7159 655.634 39.0653 655.059 39.321C654.484 39.5767 653.815 39.7045 653.052 39.7045C652.051 39.7045 651.222 39.4872 650.566 39.0526C649.909 38.6179 649.494 37.983 649.319 37.1477L650.751 36.7898C650.887 37.3182 651.145 37.7145 651.524 37.9787C651.908 38.2429 652.409 38.375 653.026 38.375C653.73 38.375 654.288 38.2259 654.701 37.9276C655.119 37.625 655.328 37.2628 655.328 36.8409C655.328 36.5 655.208 36.2145 654.97 35.9844C654.731 35.75 654.365 35.5753 653.87 35.4602L652.234 35.0767C651.335 34.8636 650.674 34.5334 650.252 34.0859C649.835 33.6342 649.626 33.0696 649.626 32.392C649.626 31.8381 649.781 31.348 650.093 30.9219C650.408 30.4957 650.836 30.1612 651.377 29.9183C651.923 29.6754 652.541 29.554 653.231 29.554C654.203 29.554 654.965 29.767 655.519 30.1932C656.078 30.6193 656.474 31.1818 656.708 31.8807ZM717.147 29.6818C717.07 29.0341 716.759 28.5312 716.213 28.1733C715.668 27.8153 714.999 27.6364 714.206 27.6364C713.627 27.6364 713.12 27.7301 712.685 27.9176C712.255 28.1051 711.918 28.3629 711.675 28.6911C711.436 29.0192 711.317 29.392 711.317 29.8097C711.317 30.1591 711.4 30.4595 711.566 30.7109C711.737 30.9581 711.954 31.1648 712.218 31.331C712.483 31.4929 712.76 31.6271 713.049 31.7337C713.339 31.8359 713.605 31.919 713.848 31.983L715.178 32.3409C715.519 32.4304 715.898 32.554 716.316 32.7116C716.738 32.8693 717.14 33.0845 717.524 33.3572C717.912 33.6257 718.231 33.9709 718.483 34.3928C718.734 34.8146 718.86 35.3324 718.86 35.946C718.86 36.6534 718.674 37.2926 718.304 37.8636C717.937 38.4347 717.4 38.8885 716.693 39.2251C715.99 39.5618 715.135 39.7301 714.13 39.7301C713.192 39.7301 712.38 39.5788 711.694 39.2763C711.012 38.9737 710.475 38.5518 710.083 38.0107C709.696 37.4695 709.476 36.8409 709.425 36.125H711.061C711.104 36.6193 711.27 37.0284 711.56 37.3523C711.854 37.6719 712.225 37.9105 712.672 38.0682C713.124 38.2216 713.61 38.2983 714.13 38.2983C714.735 38.2983 715.278 38.2003 715.76 38.0043C716.241 37.804 716.623 37.527 716.904 37.1733C717.185 36.8153 717.326 36.3977 717.326 35.9205C717.326 35.4858 717.204 35.1321 716.961 34.8594C716.718 34.5866 716.399 34.3651 716.002 34.1946C715.606 34.0241 715.178 33.875 714.718 33.7472L713.107 33.2869C712.084 32.9929 711.275 32.5732 710.678 32.0277C710.081 31.4822 709.783 30.7685 709.783 29.8864C709.783 29.1534 709.981 28.5142 710.377 27.9688C710.778 27.419 711.315 26.9929 711.988 26.6903C712.666 26.3835 713.422 26.2301 714.257 26.2301C715.101 26.2301 715.851 26.3814 716.507 26.6839C717.164 26.9822 717.684 27.3913 718.067 27.9112C718.455 28.4311 718.659 29.0213 718.681 29.6818H717.147ZM725.378 39.7045C724.432 39.7045 723.616 39.4957 722.93 39.0781C722.248 38.6562 721.722 38.0682 721.351 37.3139C720.985 36.5554 720.801 35.6733 720.801 34.6676C720.801 33.6619 720.985 32.7756 721.351 32.0085C721.722 31.2372 722.237 30.6364 722.898 30.206C723.563 29.7713 724.338 29.554 725.225 29.554C725.736 29.554 726.241 29.6392 726.74 29.8097C727.238 29.9801 727.692 30.2571 728.101 30.6406C728.51 31.0199 728.836 31.5227 729.079 32.1491C729.322 32.7756 729.443 33.5469 729.443 34.4631V35.1023H721.875V33.7983H727.909C727.909 33.2443 727.798 32.75 727.577 32.3153C727.36 31.8807 727.048 31.5376 726.644 31.2862C726.243 31.0348 725.77 30.9091 725.225 30.9091C724.624 30.9091 724.104 31.0582 723.665 31.3565C723.23 31.6506 722.896 32.0341 722.661 32.5071C722.427 32.9801 722.31 33.4872 722.31 34.0284V34.8977C722.31 35.6392 722.438 36.2678 722.693 36.7834C722.953 37.2947 723.313 37.6847 723.774 37.9531C724.234 38.2173 724.769 38.3494 725.378 38.3494C725.774 38.3494 726.132 38.294 726.452 38.1832C726.776 38.0682 727.055 37.8977 727.289 37.6719C727.524 37.4418 727.705 37.1562 727.833 36.8153L729.29 37.2244C729.137 37.7188 728.879 38.1534 728.517 38.5284C728.154 38.8991 727.707 39.1889 727.174 39.3977C726.642 39.6023 726.043 39.7045 725.378 39.7045ZM731.738 39.5V29.6818H733.195V31.1648H733.298C733.477 30.679 733.801 30.2848 734.269 29.9822C734.738 29.6797 735.267 29.5284 735.855 29.5284C735.965 29.5284 736.104 29.5305 736.27 29.5348C736.436 29.5391 736.562 29.5455 736.647 29.554V31.0881C736.596 31.0753 736.479 31.0561 736.296 31.0305C736.117 31.0007 735.927 30.9858 735.727 30.9858C735.249 30.9858 734.823 31.0859 734.448 31.2862C734.078 31.4822 733.784 31.755 733.566 32.1044C733.353 32.4496 733.247 32.8437 733.247 33.2869V39.5H731.738ZM746.763 29.6818L743.132 39.5H741.598L737.967 29.6818H739.604L742.314 37.5057H742.416L745.126 29.6818H746.763ZM748.754 39.5V29.6818H750.262V39.5H748.754ZM749.521 28.0455C749.227 28.0455 748.973 27.9453 748.76 27.745C748.551 27.5447 748.447 27.304 748.447 27.0227C748.447 26.7415 748.551 26.5007 748.76 26.3004C748.973 26.1001 749.227 26 749.521 26C749.815 26 750.066 26.1001 750.275 26.3004C750.488 26.5007 750.595 26.7415 750.595 27.0227C750.595 27.304 750.488 27.5447 750.275 27.745C750.066 27.9453 749.815 28.0455 749.521 28.0455ZM757.014 39.7045C756.093 39.7045 755.301 39.4872 754.636 39.0526C753.971 38.6179 753.46 38.0192 753.102 37.2564C752.744 36.4936 752.565 35.6222 752.565 34.642C752.565 33.6449 752.748 32.7649 753.115 32.0021C753.485 31.2351 754.001 30.6364 754.662 30.206C755.326 29.7713 756.102 29.554 756.988 29.554C757.679 29.554 758.301 29.6818 758.855 29.9375C759.409 30.1932 759.863 30.5511 760.216 31.0114C760.57 31.4716 760.789 32.0085 760.875 32.6222H759.366C759.251 32.1747 758.995 31.7784 758.599 31.4332C758.207 31.0838 757.679 30.9091 757.014 30.9091C756.426 30.9091 755.91 31.0625 755.467 31.3693C755.028 31.6719 754.685 32.1001 754.438 32.6541C754.195 33.2038 754.074 33.8494 754.074 34.5909C754.074 35.3494 754.193 36.0099 754.431 36.5724C754.674 37.1349 755.015 37.5717 755.454 37.8828C755.897 38.1939 756.417 38.3494 757.014 38.3494C757.406 38.3494 757.762 38.2812 758.081 38.1449C758.401 38.0085 758.672 37.8125 758.893 37.5568C759.115 37.3011 759.272 36.9943 759.366 36.6364H760.875C760.789 37.2159 760.578 37.7379 760.242 38.2024C759.909 38.6626 759.468 39.0291 758.919 39.3018C758.373 39.5703 757.738 39.7045 757.014 39.7045ZM767.196 39.7045C766.25 39.7045 765.434 39.4957 764.748 39.0781C764.066 38.6562 763.54 38.0682 763.169 37.3139C762.803 36.5554 762.62 35.6733 762.62 34.6676C762.62 33.6619 762.803 32.7756 763.169 32.0085C763.54 31.2372 764.056 30.6364 764.716 30.206C765.381 29.7713 766.157 29.554 767.043 29.554C767.554 29.554 768.059 29.6392 768.558 29.8097C769.056 29.9801 769.51 30.2571 769.919 30.6406C770.328 31.0199 770.654 31.5227 770.897 32.1491C771.14 32.7756 771.262 33.5469 771.262 34.4631V35.1023H763.694V33.7983H769.728C769.728 33.2443 769.617 32.75 769.395 32.3153C769.178 31.8807 768.867 31.5376 768.462 31.2862C768.061 31.0348 767.588 30.9091 767.043 30.9091C766.442 30.9091 765.922 31.0582 765.483 31.3565C765.049 31.6506 764.714 32.0341 764.48 32.5071C764.245 32.9801 764.128 33.4872 764.128 34.0284V34.8977C764.128 35.6392 764.256 36.2678 764.512 36.7834C764.772 37.2947 765.132 37.6847 765.592 37.9531C766.052 38.2173 766.587 38.3494 767.196 38.3494C767.593 38.3494 767.951 38.294 768.27 38.1832C768.594 38.0682 768.873 37.8977 769.108 37.6719C769.342 37.4418 769.523 37.1562 769.651 36.8153L771.108 37.2244C770.955 37.7188 770.697 38.1534 770.335 38.5284C769.973 38.8991 769.525 39.1889 768.993 39.3977C768.46 39.6023 767.861 39.7045 767.196 39.7045ZM780.511 31.8807L779.156 32.2642C779.071 32.0384 778.945 31.8189 778.779 31.6058C778.617 31.3885 778.395 31.2095 778.114 31.0689C777.833 30.9283 777.473 30.858 777.034 30.858C776.433 30.858 775.932 30.9964 775.532 31.2734C775.135 31.5462 774.937 31.8935 774.937 32.3153C774.937 32.6903 775.074 32.9865 775.346 33.2038C775.619 33.4212 776.045 33.6023 776.625 33.7472L778.082 34.1051C778.96 34.3182 779.614 34.6442 780.044 35.0831C780.475 35.5178 780.69 36.0781 780.69 36.7642C780.69 37.3267 780.528 37.8295 780.204 38.2727C779.885 38.7159 779.437 39.0653 778.862 39.321C778.287 39.5767 777.618 39.7045 776.855 39.7045C775.853 39.7045 775.025 39.4872 774.368 39.0526C773.712 38.6179 773.297 37.983 773.122 37.1477L774.554 36.7898C774.69 37.3182 774.948 37.7145 775.327 37.9787C775.711 38.2429 776.211 38.375 776.829 38.375C777.532 38.375 778.091 38.2259 778.504 37.9276C778.922 37.625 779.13 37.2628 779.13 36.8409C779.13 36.5 779.011 36.2145 778.772 35.9844C778.534 35.75 778.167 35.5753 777.673 35.4602L776.037 35.0767C775.137 34.8636 774.477 34.5334 774.055 34.0859C773.637 33.6342 773.429 33.0696 773.429 32.392C773.429 31.8381 773.584 31.348 773.895 30.9219C774.211 30.4957 774.639 30.1612 775.18 29.9183C775.725 29.6754 776.343 29.554 777.034 29.554C778.005 29.554 778.768 29.767 779.322 30.1932C779.88 30.6193 780.277 31.1818 780.511 31.8807ZM823.665 39.5V26.4091H828.242C829.154 26.4091 829.906 26.5668 830.498 26.8821C831.091 27.1932 831.532 27.6129 831.822 28.1413C832.111 28.6655 832.256 29.2472 832.256 29.8864C832.256 30.4489 832.156 30.9134 831.956 31.2798C831.76 31.6463 831.5 31.9361 831.176 32.1491C830.856 32.3622 830.509 32.5199 830.134 32.6222V32.75C830.535 32.7756 830.937 32.9162 831.342 33.1719C831.747 33.4276 832.086 33.794 832.358 34.2713C832.631 34.7486 832.768 35.3324 832.768 36.0227C832.768 36.679 832.618 37.2692 832.32 37.7933C832.022 38.3175 831.551 38.733 830.907 39.0398C830.264 39.3466 829.427 39.5 828.395 39.5H823.665ZM825.251 38.0938H828.395C829.431 38.0938 830.166 37.8935 830.601 37.4929C831.04 37.0881 831.259 36.598 831.259 36.0227C831.259 35.5795 831.146 35.1705 830.92 34.7955C830.694 34.4162 830.373 34.1136 829.955 33.8878C829.537 33.6577 829.043 33.5426 828.472 33.5426H825.251V38.0938ZM825.251 32.1619H828.191C828.668 32.1619 829.099 32.0682 829.482 31.8807C829.87 31.6932 830.177 31.429 830.403 31.0881C830.633 30.7472 830.748 30.3466 830.748 29.8864C830.748 29.3111 830.547 28.8232 830.147 28.4226C829.746 28.0178 829.111 27.8153 828.242 27.8153H825.251V32.1619ZM836.676 26.4091V39.5H835.168V26.4091H836.676ZM843.428 39.7045C842.542 39.7045 841.764 39.4936 841.095 39.0717C840.43 38.6499 839.91 38.0597 839.535 37.3011C839.164 36.5426 838.979 35.6562 838.979 34.642C838.979 33.6193 839.164 32.7266 839.535 31.9638C839.91 31.201 840.43 30.6087 841.095 30.1868C841.764 29.7649 842.542 29.554 843.428 29.554C844.314 29.554 845.09 29.7649 845.755 30.1868C846.424 30.6087 846.944 31.201 847.314 31.9638C847.689 32.7266 847.877 33.6193 847.877 34.642C847.877 35.6562 847.689 36.5426 847.314 37.3011C846.944 38.0597 846.424 38.6499 845.755 39.0717C845.09 39.4936 844.314 39.7045 843.428 39.7045ZM843.428 38.3494C844.101 38.3494 844.655 38.1768 845.09 37.8317C845.525 37.4865 845.846 37.0327 846.055 36.4702C846.264 35.9077 846.368 35.2983 846.368 34.642C846.368 33.9858 846.264 33.3743 846.055 32.8075C845.846 32.2408 845.525 31.7827 845.09 31.4332C844.655 31.0838 844.101 30.9091 843.428 30.9091C842.755 30.9091 842.201 31.0838 841.766 31.4332C841.331 31.7827 841.01 32.2408 840.801 32.8075C840.592 33.3743 840.488 33.9858 840.488 34.642C840.488 35.2983 840.592 35.9077 840.801 36.4702C841.01 37.0327 841.331 37.4865 841.766 37.8317C842.201 38.1768 842.755 38.3494 843.428 38.3494ZM854.143 43.3864C853.414 43.3864 852.787 43.2926 852.263 43.1051C851.739 42.9219 851.302 42.679 850.953 42.3764C850.608 42.0781 850.333 41.7585 850.128 41.4176L851.33 40.5739C851.466 40.7528 851.639 40.9574 851.848 41.1875C852.057 41.4219 852.342 41.6243 852.704 41.7947C853.071 41.9695 853.55 42.0568 854.143 42.0568C854.935 42.0568 855.589 41.8651 856.105 41.4815C856.621 41.098 856.878 40.4972 856.878 39.679V37.6847H856.751C856.64 37.8636 856.482 38.0852 856.278 38.3494C856.077 38.6094 855.787 38.8416 855.408 39.0462C855.033 39.2464 854.526 39.3466 853.887 39.3466C853.094 39.3466 852.383 39.1591 851.752 38.7841C851.126 38.4091 850.629 37.8636 850.263 37.1477C849.9 36.4318 849.719 35.5625 849.719 34.5398C849.719 33.5341 849.896 32.6584 850.25 31.9126C850.604 31.1626 851.096 30.5831 851.726 30.174C852.357 29.7607 853.086 29.554 853.912 29.554C854.552 29.554 855.059 29.6605 855.434 29.8736C855.813 30.0824 856.103 30.321 856.303 30.5895C856.508 30.8537 856.665 31.071 856.776 31.2415H856.93V29.6818H858.387V39.7812C858.387 40.625 858.195 41.3111 857.812 41.8395C857.432 42.3722 856.921 42.7621 856.278 43.0092C855.638 43.2607 854.927 43.3864 854.143 43.3864ZM854.091 37.9915C854.697 37.9915 855.208 37.853 855.626 37.576C856.043 37.299 856.361 36.9006 856.578 36.3807C856.795 35.8608 856.904 35.2386 856.904 34.5142C856.904 33.8068 856.797 33.1825 856.584 32.6413C856.371 32.1001 856.056 31.6761 855.638 31.3693C855.221 31.0625 854.705 30.9091 854.091 30.9091C853.452 30.9091 852.92 31.071 852.493 31.3949C852.072 31.7187 851.754 32.1534 851.541 32.6989C851.332 33.2443 851.228 33.8494 851.228 34.5142C851.228 35.196 851.334 35.799 851.547 36.3232C851.765 36.843 852.084 37.2521 852.506 37.5504C852.932 37.8445 853.461 37.9915 854.091 37.9915ZM912.387 30.5H910.802C910.708 30.044 910.544 29.6435 910.309 29.2983C910.079 28.9531 909.798 28.6634 909.466 28.429C909.138 28.1903 908.773 28.0114 908.373 27.892C907.972 27.7727 907.555 27.7131 907.12 27.7131C906.327 27.7131 905.609 27.9134 904.966 28.3139C904.327 28.7145 903.817 29.3047 903.438 30.0845C903.063 30.8643 902.876 31.821 902.876 32.9545C902.876 34.0881 903.063 35.0447 903.438 35.8246C903.817 36.6044 904.327 37.1946 904.966 37.5952C905.609 37.9957 906.327 38.196 907.12 38.196C907.555 38.196 907.972 38.1364 908.373 38.017C908.773 37.8977 909.138 37.7209 909.466 37.4865C909.798 37.2479 910.079 36.956 910.309 36.6108C910.544 36.2614 910.708 35.8608 910.802 35.4091H912.387C912.268 36.0781 912.05 36.6768 911.735 37.2053C911.42 37.7337 911.028 38.1832 910.559 38.554C910.09 38.9205 909.564 39.1996 908.98 39.3913C908.4 39.5831 907.78 39.679 907.12 39.679C906.003 39.679 905.01 39.4062 904.141 38.8608C903.272 38.3153 902.588 37.5398 902.089 36.5341C901.591 35.5284 901.341 34.3352 901.341 32.9545C901.341 31.5739 901.591 30.3807 902.089 29.375C902.588 28.3693 903.272 27.5938 904.141 27.0483C905.01 26.5028 906.003 26.2301 907.12 26.2301C907.78 26.2301 908.4 26.326 908.98 26.5178C909.564 26.7095 910.09 26.9908 910.559 27.3615C911.028 27.728 911.42 28.1754 911.735 28.7038C912.05 29.228 912.268 29.8267 912.387 30.5ZM918.733 39.7045C917.846 39.7045 917.069 39.4936 916.4 39.0717C915.735 38.6499 915.215 38.0597 914.84 37.3011C914.469 36.5426 914.284 35.6562 914.284 34.642C914.284 33.6193 914.469 32.7266 914.84 31.9638C915.215 31.201 915.735 30.6087 916.4 30.1868C917.069 29.7649 917.846 29.554 918.733 29.554C919.619 29.554 920.395 29.7649 921.059 30.1868C921.728 30.6087 922.248 31.201 922.619 31.9638C922.994 32.7266 923.181 33.6193 923.181 34.642C923.181 35.6562 922.994 36.5426 922.619 37.3011C922.248 38.0597 921.728 38.6499 921.059 39.0717C920.395 39.4936 919.619 39.7045 918.733 39.7045ZM918.733 38.3494C919.406 38.3494 919.96 38.1768 920.395 37.8317C920.829 37.4865 921.151 37.0327 921.36 36.4702C921.569 35.9077 921.673 35.2983 921.673 34.642C921.673 33.9858 921.569 33.3743 921.36 32.8075C921.151 32.2408 920.829 31.7827 920.395 31.4332C919.96 31.0838 919.406 30.9091 918.733 30.9091C918.059 30.9091 917.505 31.0838 917.071 31.4332C916.636 31.7827 916.314 32.2408 916.105 32.8075C915.897 33.3743 915.792 33.9858 915.792 34.642C915.792 35.2983 915.897 35.9077 916.105 36.4702C916.314 37.0327 916.636 37.4865 917.071 37.8317C917.505 38.1768 918.059 38.3494 918.733 38.3494ZM926.993 33.5938V39.5H925.484V29.6818H926.942V31.2159H927.069C927.3 30.7173 927.649 30.3168 928.118 30.0142C928.586 29.7074 929.192 29.554 929.933 29.554C930.598 29.554 931.18 29.6903 931.678 29.9631C932.177 30.2315 932.564 30.6406 932.841 31.1903C933.118 31.7358 933.257 32.4261 933.257 33.2614V39.5H931.748V33.3636C931.748 32.5923 931.548 31.9915 931.148 31.5611C930.747 31.1264 930.197 30.9091 929.498 30.9091C929.017 30.9091 928.586 31.0135 928.207 31.2223C927.832 31.4311 927.536 31.7358 927.319 32.1364C927.101 32.5369 926.993 33.0227 926.993 33.5938ZM940.283 29.6818V30.9602H935.195V29.6818H940.283ZM936.678 27.3295H938.187V36.6875C938.187 37.1136 938.249 37.4332 938.372 37.6463C938.5 37.8551 938.662 37.9957 938.858 38.0682C939.058 38.1364 939.269 38.1705 939.491 38.1705C939.657 38.1705 939.793 38.1619 939.9 38.1449C940.006 38.1236 940.092 38.1065 940.156 38.0938L940.462 39.4489C940.36 39.4872 940.217 39.5256 940.034 39.5639C939.851 39.6065 939.619 39.6278 939.337 39.6278C938.911 39.6278 938.494 39.5362 938.085 39.353C937.68 39.1697 937.343 38.8906 937.075 38.5156C936.81 38.1406 936.678 37.6676 936.678 37.0966V27.3295ZM945.442 39.7301C944.82 39.7301 944.255 39.6129 943.748 39.3786C943.241 39.1399 942.838 38.7969 942.54 38.3494C942.241 37.8977 942.092 37.3523 942.092 36.7131C942.092 36.1506 942.203 35.6946 942.425 35.3452C942.646 34.9915 942.942 34.7145 943.313 34.5142C943.684 34.3139 944.093 34.1648 944.54 34.0668C944.992 33.9645 945.446 33.8835 945.902 33.8239C946.499 33.7472 946.982 33.6896 947.353 33.6513C947.728 33.6087 948.001 33.5384 948.171 33.4403C948.346 33.3423 948.433 33.1719 948.433 32.929V32.8778C948.433 32.2472 948.261 31.7571 947.915 31.4077C947.575 31.0582 947.057 30.8835 946.362 30.8835C945.642 30.8835 945.077 31.0412 944.668 31.3565C944.259 31.6719 943.972 32.0085 943.805 32.3665L942.374 31.8551C942.629 31.2585 942.97 30.794 943.396 30.4616C943.827 30.125 944.295 29.8906 944.803 29.7585C945.314 29.6222 945.817 29.554 946.311 29.554C946.626 29.554 946.989 29.5923 947.398 29.669C947.811 29.7415 948.21 29.8928 948.593 30.1229C948.981 30.353 949.303 30.7003 949.558 31.1648C949.814 31.6293 949.942 32.2514 949.942 33.0312V39.5H948.433V38.1705H948.357C948.254 38.3835 948.084 38.6115 947.845 38.8544C947.607 39.0973 947.289 39.304 946.893 39.4744C946.496 39.6449 946.013 39.7301 945.442 39.7301ZM945.672 38.375C946.268 38.375 946.771 38.2578 947.18 38.0234C947.594 37.7891 947.905 37.4865 948.114 37.1158C948.327 36.745 948.433 36.3551 948.433 35.946V34.5653C948.369 34.642 948.229 34.7124 948.011 34.7763C947.798 34.8359 947.551 34.8892 947.27 34.9361C946.993 34.9787 946.722 35.017 946.458 35.0511C946.198 35.081 945.987 35.1065 945.825 35.1278C945.433 35.179 945.067 35.2621 944.726 35.3771C944.389 35.4879 944.116 35.6562 943.908 35.8821C943.703 36.1037 943.601 36.4062 943.601 36.7898C943.601 37.3139 943.795 37.7102 944.183 37.9787C944.575 38.2429 945.071 38.375 945.672 38.375ZM956.684 39.7045C955.763 39.7045 954.971 39.4872 954.306 39.0526C953.641 38.6179 953.13 38.0192 952.772 37.2564C952.414 36.4936 952.235 35.6222 952.235 34.642C952.235 33.6449 952.418 32.7649 952.785 32.0021C953.155 31.2351 953.671 30.6364 954.331 30.206C954.996 29.7713 955.772 29.554 956.658 29.554C957.349 29.554 957.971 29.6818 958.525 29.9375C959.079 30.1932 959.532 30.5511 959.886 31.0114C960.24 31.4716 960.459 32.0085 960.545 32.6222H959.036C958.921 32.1747 958.665 31.7784 958.269 31.4332C957.877 31.0838 957.349 30.9091 956.684 30.9091C956.096 30.9091 955.58 31.0625 955.137 31.3693C954.698 31.6719 954.355 32.1001 954.108 32.6541C953.865 33.2038 953.743 33.8494 953.743 34.5909C953.743 35.3494 953.863 36.0099 954.101 36.5724C954.344 37.1349 954.685 37.5717 955.124 37.8828C955.567 38.1939 956.087 38.3494 956.684 38.3494C957.076 38.3494 957.432 38.2812 957.751 38.1449C958.071 38.0085 958.341 37.8125 958.563 37.5568C958.785 37.3011 958.942 36.9943 959.036 36.6364H960.545C960.459 37.2159 960.248 37.7379 959.912 38.2024C959.579 38.6626 959.138 39.0291 958.589 39.3018C958.043 39.5703 957.408 39.7045 956.684 39.7045ZM967.02 29.6818V30.9602H961.932V29.6818H967.02ZM963.415 27.3295H964.923V36.6875C964.923 37.1136 964.985 37.4332 965.108 37.6463C965.236 37.8551 965.398 37.9957 965.594 38.0682C965.795 38.1364 966.006 38.1705 966.227 38.1705C966.393 38.1705 966.53 38.1619 966.636 38.1449C966.743 38.1236 966.828 38.1065 966.892 38.0938L967.199 39.4489C967.096 39.4872 966.954 39.5256 966.77 39.5639C966.587 39.6065 966.355 39.6278 966.074 39.6278C965.648 39.6278 965.23 39.5362 964.821 39.353C964.416 39.1697 964.079 38.8906 963.811 38.5156C963.547 38.1406 963.415 37.6676 963.415 37.0966V27.3295ZM983.147 26.4091H984.732V35.0767C984.732 35.9716 984.521 36.7706 984.099 37.4737C983.682 38.1726 983.091 38.7244 982.329 39.1293C981.566 39.5298 980.671 39.7301 979.644 39.7301C978.617 39.7301 977.722 39.5298 976.959 39.1293C976.197 38.7244 975.604 38.1726 975.182 37.4737C974.765 36.7706 974.556 35.9716 974.556 35.0767V26.4091H976.141V34.9489C976.141 35.5881 976.282 36.157 976.563 36.6555C976.844 37.1499 977.245 37.5398 977.765 37.8253C978.289 38.1065 978.915 38.2472 979.644 38.2472C980.373 38.2472 980.999 38.1065 981.523 37.8253C982.047 37.5398 982.448 37.1499 982.725 36.6555C983.006 36.157 983.147 35.5881 983.147 34.9489V26.4091ZM994.648 31.8807L993.293 32.2642C993.207 32.0384 993.082 31.8189 992.915 31.6058C992.754 31.3885 992.532 31.2095 992.251 31.0689C991.969 30.9283 991.609 30.858 991.17 30.858C990.57 30.858 990.069 30.9964 989.668 31.2734C989.272 31.5462 989.074 31.8935 989.074 32.3153C989.074 32.6903 989.21 32.9865 989.483 33.2038C989.756 33.4212 990.182 33.6023 990.761 33.7472L992.219 34.1051C993.097 34.3182 993.751 34.6442 994.181 35.0831C994.612 35.5178 994.827 36.0781 994.827 36.7642C994.827 37.3267 994.665 37.8295 994.341 38.2727C994.021 38.7159 993.574 39.0653 992.999 39.321C992.423 39.5767 991.754 39.7045 990.991 39.7045C989.99 39.7045 989.161 39.4872 988.505 39.0526C987.849 38.6179 987.433 37.983 987.259 37.1477L988.69 36.7898C988.827 37.3182 989.085 37.7145 989.464 37.9787C989.847 38.2429 990.348 38.375 990.966 38.375C991.669 38.375 992.227 38.2259 992.641 37.9276C993.058 37.625 993.267 37.2628 993.267 36.8409C993.267 36.5 993.148 36.2145 992.909 35.9844C992.67 35.75 992.304 35.5753 991.81 35.4602L990.173 35.0767C989.274 34.8636 988.614 34.5334 988.192 34.0859C987.774 33.6342 987.565 33.0696 987.565 32.392C987.565 31.8381 987.721 31.348 988.032 30.9219C988.347 30.4957 988.776 30.1612 989.317 29.9183C989.862 29.6754 990.48 29.554 991.17 29.554C992.142 29.554 992.905 29.767 993.459 30.1932C994.017 30.6193 994.413 31.1818 994.648 31.8807Z" fill="#37393F"/>
<rect width="184" height="65" transform="translate(1036)" fill="#6B77E5"/>
<path d="M1078.28 38.252C1077 38.252 1075.9 37.982 1074.96 37.442C1074.01 36.902 1073.28 36.14 1072.76 35.156C1072.24 34.172 1071.99 33.014 1071.99 31.682C1071.99 30.362 1072.26 29.213 1072.82 28.235C1073.39 27.257 1074.16 26.498 1075.14 25.958C1076.13 25.418 1077.27 25.148 1078.55 25.148C1079.22 25.148 1079.86 25.217 1080.46 25.355C1081.08 25.493 1081.6 25.667 1082.05 25.877L1081.83 27.821C1081.36 27.617 1080.86 27.449 1080.31 27.317C1079.76 27.185 1079.18 27.119 1078.56 27.119C1077.58 27.119 1076.77 27.32 1076.13 27.722C1075.5 28.124 1075.04 28.667 1074.73 29.351C1074.42 30.035 1074.27 30.806 1074.27 31.664C1074.27 32.558 1074.42 33.353 1074.73 34.049C1075.04 34.745 1075.51 35.291 1076.13 35.687C1076.76 36.083 1077.56 36.281 1078.51 36.281C1078.77 36.281 1079.07 36.26 1079.4 36.218C1079.73 36.176 1080.06 36.113 1080.37 36.029V33.455H1078.56V31.682H1082.46V37.298C1082.01 37.562 1081.41 37.787 1080.69 37.973C1079.96 38.159 1079.16 38.252 1078.28 38.252ZM1088.61 38.18C1087.54 38.18 1086.65 37.964 1085.93 37.532C1085.21 37.1 1084.67 36.53 1084.31 35.822C1083.95 35.108 1083.77 34.325 1083.77 33.473C1083.77 32.651 1083.94 31.895 1084.27 31.205C1084.61 30.509 1085.11 29.954 1085.76 29.54C1086.41 29.12 1087.2 28.91 1088.13 28.91C1088.95 28.91 1089.65 29.075 1090.22 29.405C1090.8 29.735 1091.24 30.191 1091.54 30.773C1091.84 31.349 1091.99 32.009 1091.99 32.753C1091.99 32.921 1091.98 33.098 1091.96 33.284C1091.94 33.464 1091.91 33.65 1091.88 33.842H1085.85C1085.93 34.496 1086.11 35.015 1086.4 35.399C1086.68 35.783 1087.03 36.062 1087.45 36.236C1087.87 36.404 1088.32 36.488 1088.81 36.488C1089.29 36.488 1089.75 36.431 1090.19 36.317C1090.64 36.197 1091.06 36.035 1091.45 35.831L1091.6 37.496C1091.26 37.664 1090.83 37.82 1090.33 37.964C1089.83 38.108 1089.25 38.18 1088.61 38.18ZM1085.94 32.474H1089.94C1089.94 32.15 1089.88 31.847 1089.75 31.565C1089.63 31.277 1089.44 31.046 1089.17 30.872C1088.9 30.692 1088.56 30.602 1088.12 30.602C1087.49 30.602 1087 30.773 1086.65 31.115C1086.3 31.457 1086.06 31.91 1085.94 32.474ZM1096.53 38.18C1095.97 38.18 1095.51 38.069 1095.17 37.847C1094.82 37.625 1094.56 37.343 1094.4 37.001C1094.24 36.653 1094.16 36.29 1094.16 35.912V30.692H1092.79L1092.97 29.063H1094.16V27.011L1096.16 26.804V29.063H1098.27V30.692H1096.16V34.967C1096.16 35.465 1096.19 35.825 1096.25 36.047C1096.31 36.263 1096.45 36.401 1096.67 36.461C1096.88 36.515 1097.23 36.542 1097.71 36.542H1098.25L1098.08 38.18H1096.53ZM1109.77 38.252C1108.51 38.252 1107.4 37.982 1106.43 37.442C1105.47 36.902 1104.71 36.143 1104.16 35.165C1103.62 34.181 1103.34 33.026 1103.34 31.7C1103.34 30.374 1103.62 29.222 1104.18 28.244C1104.74 27.26 1105.51 26.498 1106.49 25.958C1107.46 25.418 1108.58 25.148 1109.84 25.148C1110.5 25.148 1111.11 25.22 1111.67 25.364C1112.23 25.502 1112.72 25.676 1113.14 25.886L1112.91 27.857C1112.46 27.647 1111.98 27.473 1111.47 27.335C1110.97 27.191 1110.42 27.119 1109.82 27.119C1108.9 27.119 1108.13 27.32 1107.5 27.722C1106.88 28.118 1106.42 28.664 1106.1 29.36C1105.79 30.05 1105.63 30.83 1105.63 31.7C1105.63 32.57 1105.78 33.353 1106.09 34.049C1106.4 34.739 1106.86 35.285 1107.48 35.687C1108.09 36.083 1108.86 36.281 1109.77 36.281C1110.38 36.281 1110.94 36.215 1111.44 36.083C1111.94 35.951 1112.43 35.771 1112.91 35.543L1113.14 37.523C1112.67 37.739 1112.15 37.913 1111.59 38.045C1111.02 38.183 1110.42 38.252 1109.77 38.252ZM1118.57 38.18C1117.61 38.18 1116.79 37.97 1116.11 37.55C1115.44 37.13 1114.92 36.569 1114.56 35.867C1114.21 35.165 1114.03 34.391 1114.03 33.545C1114.03 32.699 1114.21 31.922 1114.56 31.214C1114.92 30.506 1115.44 29.942 1116.11 29.522C1116.79 29.096 1117.61 28.883 1118.57 28.883C1119.52 28.883 1120.34 29.096 1121.01 29.522C1121.69 29.942 1122.21 30.506 1122.56 31.214C1122.92 31.922 1123.1 32.699 1123.1 33.545C1123.1 34.391 1122.92 35.165 1122.56 35.867C1122.21 36.569 1121.69 37.13 1121.01 37.55C1120.34 37.97 1119.52 38.18 1118.57 38.18ZM1118.57 36.488C1119.36 36.488 1119.97 36.221 1120.39 35.687C1120.82 35.147 1121.04 34.433 1121.04 33.545C1121.04 32.645 1120.82 31.925 1120.39 31.385C1119.97 30.845 1119.36 30.575 1118.57 30.575C1117.77 30.575 1117.16 30.845 1116.73 31.385C1116.3 31.925 1116.08 32.645 1116.08 33.545C1116.08 34.433 1116.3 35.147 1116.73 35.687C1117.16 36.221 1117.77 36.488 1118.57 36.488ZM1124.69 38V29.063H1126.48L1126.65 30.746L1126.09 30.215C1126.52 29.789 1126.99 29.465 1127.49 29.243C1128 29.021 1128.56 28.91 1129.16 28.91C1130.36 28.91 1131.24 29.288 1131.8 30.044C1132.35 30.8 1132.63 31.799 1132.63 33.041V38H1130.63V33.149C1130.63 32.273 1130.47 31.631 1130.17 31.223C1129.86 30.809 1129.36 30.602 1128.65 30.602C1128.11 30.602 1127.64 30.728 1127.26 30.98C1126.88 31.232 1126.58 31.595 1126.36 32.069L1126.69 31.007V38H1124.69ZM1137.21 38.18C1136.55 38.18 1135.97 38.111 1135.48 37.973C1134.99 37.829 1134.55 37.664 1134.17 37.478L1134.37 35.687C1134.73 35.921 1135.14 36.131 1135.61 36.317C1136.07 36.497 1136.58 36.587 1137.14 36.587C1137.63 36.587 1138 36.509 1138.26 36.353C1138.52 36.191 1138.65 35.945 1138.65 35.615C1138.65 35.357 1138.57 35.147 1138.42 34.985C1138.27 34.817 1138.07 34.676 1137.81 34.562C1137.56 34.442 1137.27 34.328 1136.96 34.22C1136.46 34.052 1136.01 33.863 1135.61 33.653C1135.2 33.437 1134.88 33.161 1134.64 32.825C1134.41 32.489 1134.29 32.054 1134.29 31.52C1134.29 31.028 1134.42 30.584 1134.67 30.188C1134.92 29.786 1135.29 29.468 1135.79 29.234C1136.28 29 1136.89 28.883 1137.62 28.883C1138.2 28.883 1138.7 28.946 1139.12 29.072C1139.54 29.198 1139.93 29.354 1140.27 29.54L1140.07 31.295C1139.72 31.037 1139.35 30.824 1138.96 30.656C1138.58 30.482 1138.14 30.395 1137.66 30.395C1137.23 30.395 1136.88 30.479 1136.63 30.647C1136.39 30.815 1136.26 31.064 1136.26 31.394C1136.26 31.766 1136.42 32.039 1136.73 32.213C1137.04 32.387 1137.53 32.594 1138.19 32.834C1138.54 32.96 1138.86 33.098 1139.16 33.248C1139.46 33.398 1139.72 33.575 1139.95 33.779C1140.18 33.983 1140.36 34.226 1140.48 34.508C1140.61 34.79 1140.67 35.126 1140.67 35.516C1140.67 36.02 1140.55 36.473 1140.31 36.875C1140.07 37.277 1139.7 37.595 1139.19 37.829C1138.68 38.063 1138.02 38.18 1137.21 38.18ZM1145.76 38.18C1144.91 38.18 1144.22 38.012 1143.69 37.676C1143.15 37.334 1142.76 36.854 1142.51 36.236C1142.26 35.612 1142.14 34.871 1142.14 34.013V29.063H1144.15V33.851C1144.15 34.721 1144.29 35.375 1144.59 35.813C1144.89 36.245 1145.37 36.461 1146.03 36.461C1146.53 36.461 1146.97 36.341 1147.33 36.101C1147.7 35.861 1147.98 35.51 1148.19 35.048L1147.84 36.083V29.063H1149.85V38H1148.01L1147.82 36.371L1148.29 36.884C1148.04 37.256 1147.69 37.565 1147.24 37.811C1146.79 38.057 1146.3 38.18 1145.76 38.18ZM1154.28 38.18C1153.73 38.18 1153.29 38.075 1152.95 37.865C1152.61 37.655 1152.36 37.379 1152.21 37.037C1152.05 36.689 1151.97 36.311 1151.97 35.903V24.5H1153.99V34.985C1153.99 35.471 1154.02 35.825 1154.08 36.047C1154.14 36.263 1154.25 36.401 1154.42 36.461C1154.6 36.515 1154.85 36.542 1155.2 36.542L1154.98 38.18H1154.28ZM1159.43 38.18C1158.86 38.18 1158.41 38.069 1158.06 37.847C1157.71 37.625 1157.46 37.343 1157.29 37.001C1157.13 36.653 1157.05 36.29 1157.05 35.912V30.692H1155.68L1155.86 29.063H1157.05V27.011L1159.06 26.804V29.063H1161.16V30.692H1159.06V34.967C1159.06 35.465 1159.09 35.825 1159.15 36.047C1159.21 36.263 1159.35 36.401 1159.56 36.461C1159.78 36.515 1160.13 36.542 1160.61 36.542H1161.15L1160.98 38.18H1159.43ZM1162.6 38V29.063H1164.61V38H1162.6ZM1162.6 27.479V25.4H1164.61V27.479H1162.6ZM1166.75 38V29.063H1168.54L1168.71 30.746L1168.15 30.215C1168.59 29.789 1169.05 29.465 1169.56 29.243C1170.07 29.021 1170.62 28.91 1171.22 28.91C1172.42 28.91 1173.3 29.288 1173.86 30.044C1174.42 30.8 1174.7 31.799 1174.7 33.041V38H1172.69V33.149C1172.69 32.273 1172.54 31.631 1172.23 31.223C1171.92 30.809 1171.42 30.602 1170.72 30.602C1170.17 30.602 1169.71 30.728 1169.32 30.98C1168.94 31.232 1168.64 31.595 1168.42 32.069L1168.76 31.007V38H1166.75ZM1180.3 42.527C1179.47 42.527 1178.74 42.425 1178.11 42.221C1177.49 42.017 1177 41.72 1176.64 41.33C1176.29 40.946 1176.11 40.478 1176.11 39.926C1176.11 39.47 1176.24 39.065 1176.5 38.711C1176.76 38.363 1177.12 38.069 1177.6 37.829C1177.35 37.685 1177.14 37.511 1176.99 37.307C1176.85 37.097 1176.78 36.863 1176.78 36.605C1176.78 36.323 1176.86 36.074 1177.02 35.858C1177.19 35.642 1177.43 35.468 1177.73 35.336C1177.26 35.018 1176.91 34.604 1176.66 34.094C1176.42 33.584 1176.29 33.023 1176.29 32.411C1176.29 31.769 1176.43 31.181 1176.72 30.647C1177 30.113 1177.42 29.687 1177.96 29.369C1178.5 29.045 1179.17 28.883 1179.95 28.883C1180.35 28.883 1180.73 28.937 1181.08 29.045C1181.43 29.153 1181.75 29.306 1182.03 29.504C1182.25 29.378 1182.53 29.273 1182.88 29.189C1183.23 29.099 1183.63 29.054 1184.06 29.054C1184.14 29.054 1184.21 29.054 1184.28 29.054C1184.34 29.054 1184.41 29.054 1184.48 29.054L1184.31 30.341C1184.2 30.341 1184.09 30.341 1183.98 30.341C1183.87 30.341 1183.76 30.341 1183.65 30.341C1183.59 30.341 1183.5 30.344 1183.36 30.35C1183.23 30.356 1183.09 30.371 1182.96 30.395C1183.17 30.677 1183.32 30.992 1183.42 31.34C1183.53 31.688 1183.58 32.045 1183.58 32.411C1183.58 33.071 1183.44 33.671 1183.16 34.211C1182.88 34.745 1182.46 35.174 1181.92 35.498C1181.38 35.816 1180.72 35.975 1179.95 35.975C1179.76 35.975 1179.58 35.963 1179.41 35.939C1179.24 35.915 1179.07 35.882 1178.9 35.84C1178.72 35.906 1178.63 36.023 1178.63 36.191C1178.63 36.341 1178.72 36.461 1178.9 36.551C1179.08 36.641 1179.37 36.716 1179.77 36.776L1181.61 37.046C1182.57 37.178 1183.32 37.451 1183.85 37.865C1184.39 38.279 1184.66 38.867 1184.66 39.629C1184.66 40.229 1184.49 40.745 1184.14 41.177C1183.79 41.609 1183.29 41.942 1182.64 42.176C1181.98 42.41 1181.2 42.527 1180.3 42.527ZM1180.41 40.925C1181.19 40.925 1181.79 40.826 1182.2 40.628C1182.6 40.43 1182.81 40.136 1182.81 39.746C1182.81 39.41 1182.67 39.155 1182.39 38.981C1182.12 38.813 1181.7 38.681 1181.13 38.585L1178.97 38.252C1178.66 38.378 1178.4 38.549 1178.18 38.765C1177.97 38.981 1177.86 39.251 1177.86 39.575C1177.86 40.037 1178.09 40.376 1178.54 40.592C1179 40.814 1179.62 40.925 1180.41 40.925ZM1179.95 34.454C1180.53 34.454 1180.98 34.268 1181.28 33.896C1181.58 33.524 1181.74 33.032 1181.74 32.42C1181.74 31.82 1181.58 31.337 1181.28 30.971C1180.98 30.599 1180.53 30.413 1179.95 30.413C1179.35 30.413 1178.9 30.599 1178.6 30.971C1178.3 31.337 1178.15 31.82 1178.15 32.42C1178.15 33.032 1178.3 33.524 1178.6 33.896C1178.9 34.268 1179.35 34.454 1179.95 34.454Z" fill="white"/>
</svg>
